# xmcd CD database file
#
# Track frame offsets:
#	150
#	14340
#	29708
#	46848
#	63300
#	79743
#	94150
#	108038
#	122425
#	145790
#	160305
#	181513
#	195710
#	210673
#
# Disc length: 3025 seconds
#
# Revision: 3
# Processed by: cddbd v1.5.2PL0 Copyright (c) Steve Scherf et al.
# Submitted via: CDex 1.70beta2
#
DISCID=b00bcf0e
DTITLE=Kamelot - Zachrante kone
DYEAR=1990
DGENRE=Country
TTITLE0=Zpatky par let
TTITLE1=Cikani
TTITLE2=Pristav
TTITLE3=Amulet
TTITLE4=Cas rozchodu
TTITLE5=Dik pane Foglar
TTITLE6=Zachrante kone
TTITLE7=Psano na brezove kure
TTITLE8=Bella a Sebastian
TTITLE9=Adler
TTITLE10=Zatmeni
TTITLE11=Vernak
TTITLE12=Setri si slzy z oci
TTITLE13=Velka voda
EXTD=YEAR: 1990
EXTT0=
EXTT1=
EXTT2=
EXTT3=
EXTT4=
EXTT5=
EXTT6=
EXTT7=
EXTT8=
EXTT9=
EXTT10=
EXTT11=
EXTT12=
EXTT13=
PLAYORDER=
